<?xml version="1.0" encoding="UTF-8"?>
<svg width="256" height="256" viewBox="0 0 256 256" fill="none" xmlns="http://www.w3.org/2000/svg">
  <g>
    <path d="M128 16L161.47 42.33L191.53 63.29L203.14 94.67L213.33 128L203.14 161.33L191.53 192.71L161.47 213.67L128 240L94.53 213.67L64.47 192.71L52.86 161.33L42.67 128L52.86 94.67L64.47 63.29L94.53 42.33L128 16Z" fill="#F6C500"/>
    <path d="M94.53 74.33L128 58.67L161.47 74.33L176 110.67L161.47 147L128 162.67L94.53 147L80 110.67L94.53 74.33Z" fill="#FFFFFF"/>
    <path d="M94.53 74.33L128 90L161.47 74.33L146.07 110.67L161.47 147L128 131.33L94.53 147L109.93 110.67L94.53 74.33Z" fill="#F6C500"/>
  </g>
</svg>